<svg width="600" height="181" fill="none" xmlns="http://www.w3.org/2000/svg"><path d="M232.736 120.822v2.69h-14.33v-2.69h14.33zm-11.717 9.495h5.937v2.69h-5.937v9.495h-2.613v-16.378h2.613v4.193zm23.116 9.019c-2.058-2.057-3.166-4.747-3.166-7.675 0-2.927 1.108-5.618 3.166-7.675 2.059-2.057 4.751-3.165 7.68-3.165 2.929 0 5.542 1.108 7.6 3.165s3.246 4.748 3.246 7.675c0 2.849-1.188 5.618-3.246 7.675-2.058 2.057-4.75 3.165-7.6 3.165-2.929 0-5.621-1.187-7.68-3.165zm-.475-7.675c0 4.51 3.642 8.15 8.155 8.15a8.14 8.14 0 008.154-8.15 8.14 8.14 0 00-8.154-8.15 8.141 8.141 0 00-8.155 8.15zm29.848 3.561v-14.401h2.692v14.401a4.593 4.593 0 004.591 4.589 4.593 4.593 0 004.592-4.589v-14.401h2.692v14.401c0 4.035-3.246 7.2-7.205 7.2-4.195.079-7.362-3.165-7.362-7.2zm41.326-14.401v21.601h-3.008l-3.404-5.855-1.267-2.295-1.504-2.611-6.254-10.84h3.087l6.255 10.84 3.641 6.251v-17.091h2.454zm-15.596 5.302l2.692 4.589v11.789h-2.692v-16.378zm28.024 13.688h5.146c4.512 0 8.233-3.64 8.233-8.15s-3.642-8.15-8.233-8.15h-5.146v-2.69h5.146c2.929 0 5.621 1.108 7.679 3.165s3.167 4.748 3.167 7.675c0 2.928-1.109 5.539-3.167 7.675-2.058 2.057-4.75 3.165-7.679 3.165h-5.146v-2.69zm36.418-15.825l-1.505 3.165-7.125 15.35h-2.929l8.629-18.436 1.425-3.165 1.505 3.086zm8.55 18.435h-2.929l-5.621-12.185 1.425-3.164 7.125 15.349zm22.483-18.91h-14.408v-2.69h14.408v2.69zm-5.858 18.99h-2.692v-16.299h2.692v16.299zm16.942-18.99h-2.692v-2.69h2.692v2.69zm0 18.99h-2.692v-16.299h2.692v16.299zm13.303-3.165c-2.058-2.057-3.166-4.747-3.166-7.675 0-2.927 1.108-5.618 3.166-7.675 2.059-2.057 4.75-3.165 7.68-3.165 2.929 0 5.541 1.108 7.6 3.165 2.058 2.057 3.246 4.748 3.246 7.675 0 2.849-1.188 5.618-3.246 7.675-2.059 2.057-4.75 3.165-7.6 3.165a10.77 10.77 0 01-7.68-3.165zm-.554-7.675a8.14 8.14 0 008.154 8.15 8.141 8.141 0 008.155-8.15c0-4.51-3.642-8.15-8.155-8.15a8.14 8.14 0 00-8.154 8.15zm45.203-10.84v21.601h-3.009l-3.404-5.855-1.267-2.295-1.504-2.611-6.254-10.84h3.087l6.255 10.84 3.641 6.251v-17.091h2.455zm-15.597 5.302l2.692 4.589v11.789h-2.692v-16.378z" fill="#fff"/><path d="M122.218 180.005c-1.267 0-2.454-.158-3.721-.396l-72.518-15.824c-5.146-1.108-9.5-4.51-11.875-9.258L1.803 89.013c-2.217-4.43-2.375-9.574-.554-14.163L16.29 37.662a17.354 17.354 0 0111.875-10.365l74.577-18.436v5.935L29.591 32.915c-3.563.87-6.57 3.481-7.917 6.883L6.632 76.987a11.188 11.188 0 00.396 9.416l32.38 65.514c1.583 3.165 4.433 5.38 7.917 6.172l72.518 15.824c4.038.871 8.313-.474 11.084-3.56l45.917-51.351c4.988-5.618 6.651-13.53 4.355-20.651L155.39 20.334h6.333L186.74 96.53c2.93 9.099.871 19.148-5.541 26.348l-45.918 51.351a17.71 17.71 0 01-13.063 5.776z" fill="#ED1C24"/><path d="M131.244 14.796h-7.759v7.912h-7.125v-7.912h-7.758V7.833h7.758V0h7.125v7.833h7.759v6.963zm27.152 0h-7.758v7.912h-7.126v-7.912h-7.758V7.833h7.758V0h7.126v7.833h7.758v6.963zm-57.315 86.718H84.455V80.31H63.951v21.204H47.246V48.502h16.705V66.7h20.425V48.502h16.625v53.012h.08zm22.72-13.609h28.817v13.609h-45.442V48.502h16.704v39.403h-.079z" fill="#ED1C24"/><path d="M81.764 139.732H67.988v-2.136c0-.95.238-1.741.792-2.453.554-.712 1.188-1.266 1.98-1.662.712-.316 1.582-.712 2.612-1.186.95-.396 1.82-.792 2.612-1.108.792-.317 1.425-.712 1.98-1.266.554-.554.791-1.108.791-1.82 0-1.741-1.266-2.611-3.72-2.611-2.455 0-3.722 1.029-3.722 3.007v.554h-2.929v-.554c0-1.741.554-3.165 1.742-4.115 1.187-.949 2.77-1.424 4.83-1.424 2.057 0 3.72.475 4.907 1.345 1.188.95 1.742 2.216 1.742 3.798 0 .949-.237 1.82-.791 2.532-.475.712-1.188 1.345-1.98 1.82-.791.475-1.662.87-2.533 1.266-.87.395-1.742.712-2.533 1.028-.792.317-1.425.633-1.98 1.029-.554.396-.791.87-.791 1.345h10.53v2.611h.237zm4.036-2.138c-1.345-1.582-2.058-3.56-2.058-6.092 0-2.532.713-4.51 2.059-6.093 1.345-1.582 3.245-2.373 5.62-2.373 2.376 0 4.276.791 5.621 2.373 1.346 1.583 2.059 3.64 2.059 6.093 0 2.532-.713 4.589-2.058 6.092-1.346 1.583-3.246 2.374-5.622 2.374-2.375-.079-4.275-.87-5.62-2.374zm9.026-1.978c.792-1.107 1.187-2.453 1.187-4.193 0-1.741-.395-3.086-1.187-4.194s-1.98-1.661-3.404-1.661c-1.505 0-2.613.553-3.405 1.661-.791 1.108-1.187 2.532-1.187 4.194 0 1.74.396 3.086 1.187 4.193.792 1.108 1.98 1.662 3.404 1.662 1.505 0 2.613-.554 3.405-1.662zm20.027 4.115h-13.775v-2.136c0-.95.238-1.741.792-2.453.554-.712 1.187-1.266 1.979-1.662.713-.316 1.583-.712 2.613-1.186.95-.396 1.82-.792 2.612-1.108.792-.317 1.425-.712 1.979-1.266.555-.554.792-1.108.792-1.82 0-1.741-1.267-2.611-3.721-2.611s-3.721 1.029-3.721 3.007v.554h-2.929v-.554c0-1.741.554-3.165 1.742-4.115 1.187-.949 2.771-1.424 4.829-1.424s3.721.475 4.908 1.345c1.188.95 1.742 2.216 1.742 3.798 0 .95-.237 1.82-.792 2.532-.475.712-1.187 1.345-1.979 1.82-.791.475-1.662.87-2.533 1.266-.871.395-1.742.712-2.534 1.028-.791.317-1.425.633-1.979 1.029-.554.396-.791.87-.791 1.345h10.529v2.611h.237zm15.68 0h-13.775v-2.136c0-.95.237-1.741.791-2.453.555-.712 1.188-1.266 1.98-1.662a212.38 212.38 0 002.612-1.186c.95-.396 1.821-.792 2.613-1.108.792-.317 1.425-.712 1.979-1.266s.792-1.108.792-1.82c0-1.741-1.267-2.611-3.721-2.611s-3.721 1.029-3.721 3.007v.554h-2.929v-.554c0-1.741.554-3.165 1.741-4.115 1.188-.949 2.771-1.424 4.83-1.424 2.058 0 3.721.475 4.908 1.345 1.188.95 1.742 2.216 1.742 3.798 0 .95-.238 1.82-.792 2.532-.475.712-1.187 1.345-1.979 1.82-.792.475-1.663.87-2.534 1.266-.87.395-1.741.712-2.533 1.028-.792.317-1.425.633-1.979 1.029-.554.396-.792.87-.792 1.345h10.53v2.611h.237z" fill="#fff"/><path d="M265.354 93.05h-11.321V71.764h-24.384V93.05h-11.321V42.648h11.321v19.148h24.384V42.648h11.321v50.401zm7.444-42.886c-1.029-.87-1.583-1.978-1.583-3.481 0-1.424.554-2.532 1.583-3.481 1.029-.87 2.375-1.267 4.196-1.267 1.821 0 3.246.396 4.196 1.267 1.029.87 1.583 2.057 1.583 3.48 0 1.425-.554 2.612-1.583 3.482-1.029.87-2.375 1.266-4.196 1.266-1.742 0-3.167-.395-4.196-1.266zm-.95 6.884h10.371V93.05h-10.371v-36zm16.069 11.315c0-3.719 1.583-6.646 4.671-8.782 3.087-2.137 7.204-3.166 12.508-3.166h22.326v7.2h-6.65c1.029.95 1.504 2.612 1.504 5.223 0 3.719-1.584 6.646-4.671 8.624-3.088 1.978-7.284 3.007-12.509 3.007-5.146 0-7.758.87-7.758 2.532 0 1.74 2.612 2.611 7.758 2.611 6.809 0 11.955.95 15.359 2.848 3.404 1.9 5.067 4.748 5.067 8.546 0 7.437-6.809 11.235-20.426 11.235-13.617 0-20.346-3.719-20.346-11.235 0-1.266.238-2.532.713-3.64s1.029-2.057 1.82-2.77c1.346-1.265 2.613-2.136 3.8-2.61l.713-.317v-.316c-.713-.317-1.346-.95-1.979-1.9-.554-.711-.792-1.503-.792-2.452 0-1.108.317-2.057 1.029-2.928.634-.87 1.346-1.424 2.138-1.661l1.108-.475V77.7c-.316-.159-.95-.554-1.821-1.266-.633-.554-1.187-1.108-1.583-1.662-.554-.633-.95-1.582-1.346-2.69-.396-1.266-.633-2.453-.633-3.719zm26.917 28.564c0-2.532-3.246-3.798-9.738-3.798-6.492 0-9.737 1.266-9.737 3.798 0 2.531 3.245 3.798 9.737 3.798s9.738-1.266 9.738-3.798zm-3.246-28.485c0-3.244-2.137-4.905-6.492-4.905-4.354 0-6.492 1.661-6.492 4.905s2.138 4.906 6.492 4.906c4.275 0 6.492-1.662 6.492-4.906zm56.211 24.608h-10.372V74.93c0-3.007-.791-5.301-2.375-6.963-1.583-1.582-3.879-2.373-6.729-2.373-2.929 0-5.146.87-6.729 2.532-1.584 1.74-2.375 3.956-2.375 6.804v18.12h-10.371V42.647h10.371v20.335h.633c.238-.554.792-1.345 1.663-2.295a13.836 13.836 0 012.295-2.057c.951-.633 2.217-1.187 3.88-1.662 1.583-.474 3.325-.633 5.067-.633 4.512 0 8.154 1.266 11.004 3.877 2.771 2.611 4.117 6.568 4.117 11.79v21.046h-.079zm12.35-4.352h31.825v4.351h-36.576V42.648h4.751v46.05zm36.812-.08c-3.563-3.402-5.305-7.833-5.305-13.213 0-5.38 1.742-9.811 5.305-13.214 3.562-3.402 8.075-5.064 13.537-5.064 5.463 0 9.976 1.662 13.538 5.064 3.563 3.403 5.304 7.834 5.304 13.214 0 5.46-1.741 9.811-5.304 13.213-3.562 3.403-8.075 5.064-13.538 5.064-5.541.08-10.054-1.661-13.537-5.064zm13.537.87c4.275 0 7.68-1.344 10.292-4.034 2.613-2.69 3.959-6.014 3.959-10.05 0-3.955-1.346-7.278-3.959-10.048-2.612-2.69-6.096-4.035-10.292-4.035s-7.679 1.345-10.292 4.035c-2.612 2.69-3.958 6.093-3.958 10.049 0 3.956 1.346 7.28 3.958 10.049 2.613 2.69 6.017 4.035 10.292 4.035zm23.514-6.092c0-3.402 1.583-6.013 4.671-7.833 3.087-1.74 6.966-2.69 11.637-2.69 2.455 0 4.83.316 7.046.95 2.217.632 3.8 1.265 4.751 1.82l1.504.949v-6.488c0-2.849-1.109-5.064-3.246-6.568-2.217-1.503-4.909-2.215-8.155-2.215-3.166 0-5.937.633-8.312 1.978-2.375 1.266-3.484 2.928-3.484 4.827h-4.433c.079-2.928 1.583-5.46 4.354-7.675 2.771-2.216 6.73-3.324 11.796-3.324 4.592 0 8.392 1.108 11.48 3.324 3.087 2.215 4.591 5.46 4.591 9.732v14.875c0 1.661.238 2.848.792 3.56.554.713 1.425 1.03 2.692 1.03.792 0 1.425-.08 1.9-.317l.237-.159v3.877c-.633.317-1.583.475-2.85.475-2.216 0-3.8-.475-4.75-1.503-.95-.95-1.583-1.74-1.741-2.295l-.08-.395h-.237c-.158.316-.871.79-2.138 1.503-.87.554-1.741 1.028-2.691 1.345-2.296 1.029-5.146 1.582-8.63 1.582-4.829 0-8.787-.87-11.875-2.531-3.325-1.662-4.829-4.273-4.829-7.834zm4.591 0c0 4.115 4.196 6.172 12.509 6.172 2.454 0 4.75-.396 6.888-1.108 2.058-.712 3.483-1.345 4.117-1.82.633-.474 1.108-.87 1.504-1.186v-4.985c-.159-.238-.634-.554-1.346-1.029-.871-.475-2.296-1.028-4.275-1.582-2.138-.633-4.354-.95-6.809-.95-4.908 0-8.471.87-10.687 2.532-1.267 1.187-1.901 2.453-1.901 3.956zm55.34 10.365c-5.304 0-9.737-1.74-13.221-5.142-3.483-3.403-5.304-7.834-5.304-13.214 0-5.38 1.742-9.732 5.304-13.214 3.484-3.402 7.917-5.143 13.221-5.143 5.938-.079 10.688 2.058 14.092 6.33l.08.08s0 .078.079.078l.158.238h.317V42.648h4.433v50.401h-4.433v-6.013h-.317l-.158.237c-3.563 4.431-8.313 6.568-14.251 6.489zm-9.975-28.326c-2.612 2.69-3.958 6.093-3.958 10.05 0 3.955 1.346 7.278 3.958 10.048 2.613 2.69 6.096 4.035 10.292 4.035s7.6-1.345 10.292-3.956c2.613-2.611 3.958-6.013 3.958-10.128 0-4.114-1.345-7.438-3.958-10.128-2.692-2.61-6.096-3.877-10.292-3.877-4.196-.079-7.6 1.266-10.292 3.956zm47.026 6.567V59.501h4.196v12.501h12.588v4.194H555.19v12.422h-4.196V76.117h-12.588v-4.115h12.588zm32.223 0V59.501h4.196v12.501H600v4.194h-12.587v12.422h-4.196V76.117h-12.588v-4.115h12.588z" fill="#ED1C24"/></svg>